# xmcd
# 
# Track frame offsets:
#     150
#     11750
#     29450
#     51960
#     65025
#     77525
#     90425
#     103297
#     123060
#     132537
# 
# Disc length: 1949
# 
# Revision: 2
# Processed by: cddbd v1.5.2PL0 Copyright (c) Steve Scherf et al.
# Submitted via: fre:ac v1.1beta1pre2
# 
DISCID=83079b0a
DTITLE=Various Artist - Midnight Blues
DYEAR=0
DGENRE=Jazz
TTITLE0=Sonny Boy Williamson - Don't Start Me To Talkin'
TTITLE1=Bobby Bland - Twenty-Four Hour Blues
TTITLE2=B.B. King - Midnight Believer
TTITLE3=Howlin' Wolf - Baby How Long
TTITLE4=Buddy Guy - I Suffer With The Blues
TTITLE5=Lowell Fulson - Trouble, Trouble
TTITLE6=Muddy Waters - I've Got My Mojo Working
TTITLE7=Little Milton - They Call It Stormy Monday
TTITLE8=Albert Collins - Frostbite
TTITLE9=Willie Dixon - Walking The Blues
EXTD=
EXTT0=
EXTT1=
EXTT2=
EXTT3=
EXTT4=
EXTT5=
EXTT6=
EXTT7=
EXTT8=
EXTT9=
PLAYORDER=
